<svg xmlns="http://www.w3.org/2000/svg" width="434.137" height="445.137" viewBox="0 0 434.137 445.137">
  <g id="AIsaac-VM-logo-3" transform="translate(-271.794 -1547.71)">
    <g id="Component_1_3" data-name="Component 1 – 3" transform="translate(335.794 1547.71)">
      <path id="Path_3" data-name="Path 3" d="M114.925-283.29H136.8L246.2-20H218.757l-32.9-82.324H65.506L32.6-20H4.788ZM177.7-122.72l-52.02-130.162L73.658-122.72ZM284.024-20V-283.29h25.958V-20Z" transform="translate(-4.788 283.29)"/>
    </g>
    <path id="Path_7" data-name="Path 7" d="M9.9-66.421l12.868,40.1,12.733-40.1h9.718L27.2-14.28H18.282L.186-66.421Zm36.66,37.889V-52.395h8.981v21.7a11.917,11.917,0,0,0,1.475,6.567,4.9,4.9,0,0,0,4.366,2.214,8.472,8.472,0,0,0,3.451-.755,9.865,9.865,0,0,0,3.151-2.265,12.993,12.993,0,0,0,2.455-3.813V-52.395h8.981v27.136a3.631,3.631,0,0,0,.5,2.177,2.337,2.337,0,0,0,1.637.8v8.005q-1.34.221-2.25.331a13.692,13.692,0,0,1-1.637.11,6.1,6.1,0,0,1-3.92-1.2,4.824,4.824,0,0,1-1.776-3.31l-.2-3.052a15.882,15.882,0,0,1-6.043,5.863,16.725,16.725,0,0,1-8.11,2,9.6,9.6,0,0,1-8.243-3.82,18.664,18.664,0,0,1-2.817-11.179ZM88.453-67.89h8.981v41.4a5.671,5.671,0,0,0,.8,3.574,2.782,2.782,0,0,0,2.212.921,8.844,8.844,0,0,0,2.212-.295,9.969,9.969,0,0,0,2.011-.734l1.207,7.49a16.306,16.306,0,0,1-4.223,1.469,21.1,21.1,0,0,1-4.356.514,8.519,8.519,0,0,1-6.535-2.467,9.9,9.9,0,0,1-2.312-7.032Zm54.154,53.61h-8.981V-35.557a11.778,11.778,0,0,0-1.475-6.659,4.722,4.722,0,0,0-4.092-2.1,7.588,7.588,0,0,0-3.652,1,11.532,11.532,0,0,0-3.318,2.76,11.036,11.036,0,0,0-2.144,4.051v22.22h-8.981V-52.395h8.11v7.109a13.947,13.947,0,0,1,3.419-4.176,14.935,14.935,0,0,1,4.791-2.615,17.95,17.95,0,0,1,5.728-.908,10.332,10.332,0,0,1,5.395,1.27,8.441,8.441,0,0,1,3.216,3.412,16.059,16.059,0,0,1,1.54,4.828,33.976,33.976,0,0,1,.436,5.446Zm24.329.734a18.182,18.182,0,0,1-7.641-1.561,17.279,17.279,0,0,1-5.831-4.284,19.614,19.614,0,0,1-3.719-6.246,21.222,21.222,0,0,1-1.307-7.443,21.991,21.991,0,0,1,2.25-9.951,18.094,18.094,0,0,1,6.434-7.228A17.73,17.73,0,0,1,167-52.976a17.343,17.343,0,0,1,9.853,2.727,17.933,17.933,0,0,1,6.26,7.2,21.723,21.723,0,0,1,2.179,9.638q0,.872-.068,1.782t-.135,1.491h-27.14a11.625,11.625,0,0,0,1.575,5.023,8.844,8.844,0,0,0,3.351,3.273,9.04,9.04,0,0,0,4.39,1.113,9.653,9.653,0,0,0,5.06-1.432,7.351,7.351,0,0,0,3.251-3.783l7.707,2.351a15.929,15.929,0,0,1-3.648,5.2,17.262,17.262,0,0,1-5.6,3.562,18.988,18.988,0,0,1-7.107,1.293Zm-9.19-22.84H176.11a11.945,11.945,0,0,0-1.508-4.988,9.065,9.065,0,0,0-3.251-3.3,8.682,8.682,0,0,0-4.491-1.185,8.388,8.388,0,0,0-4.39,1.185,9.155,9.155,0,0,0-3.216,3.3,11.946,11.946,0,0,0-1.508,4.988ZM211.9-44.244a15.209,15.209,0,0,0-7.306,1.727,10.07,10.07,0,0,0-4.624,4.957v23.28h-8.981V-52.395h8.243v7.858a17.083,17.083,0,0,1,4.759-6.242,10.939,10.939,0,0,1,6.1-2.5h1.139a2.584,2.584,0,0,1,.671.074Zm2.615,18.724a11.225,11.225,0,0,1,1.911-6.494,12.379,12.379,0,0,1,5.319-4.317,19.081,19.081,0,0,1,7.842-1.524,28.2,28.2,0,0,1,4.491.366,14.349,14.349,0,0,1,3.955,1.174V-38.36a7.445,7.445,0,0,0-1.976-5.552,8.03,8.03,0,0,0-5.863-1.948,14.008,14.008,0,0,0-5.5,1.1,27.083,27.083,0,0,0-5.485,3.241l-2.883-6.463a27.581,27.581,0,0,1,7.138-3.746,23.563,23.563,0,0,1,7.674-1.248,16.117,16.117,0,0,1,11.694,4.055,15.379,15.379,0,0,1,4.188,11.584v12.091a3.617,3.617,0,0,0,.5,2.173,2.34,2.34,0,0,0,1.637.8v8.005q-1.207.221-2.179.366a11.293,11.293,0,0,1-1.637.147,5.632,5.632,0,0,1-4.055-1.322,5.749,5.749,0,0,1-1.708-3.23l-.2-1.982a15.7,15.7,0,0,1-5.7,4.994,15.052,15.052,0,0,1-6.97,1.764,12.586,12.586,0,0,1-6.266-1.561,11.353,11.353,0,0,1-4.356-4.282,12.015,12.015,0,0,1-1.569-6.14Zm21.85,1.911a10.077,10.077,0,0,0,1.207-1.719,3.332,3.332,0,0,0,.469-1.575V-30.7a17.253,17.253,0,0,0-3.478-1.109,17.329,17.329,0,0,0-3.552-.393,9.591,9.591,0,0,0-5.728,1.61,5,5,0,0,0-2.25,4.262,5.4,5.4,0,0,0,.736,2.72,5.5,5.5,0,0,0,2.144,2.077,6.751,6.751,0,0,0,3.351.788,10.053,10.053,0,0,0,3.955-.818,9.691,9.691,0,0,0,3.153-2.048Zm39.207,10.062A13.178,13.178,0,0,1,268.4-15.53a13.912,13.912,0,0,1-4.959-5.434v6.684H255.6v-53.6h8.981v22.324a14.73,14.73,0,0,1,4.926-5.434,12.8,12.8,0,0,1,7.138-1.982,12.629,12.629,0,0,1,6.234,1.561,15.2,15.2,0,0,1,4.859,4.321,20.979,20.979,0,0,1,3.151,6.318,25.584,25.584,0,0,1,1.107,7.625,23.022,23.022,0,0,1-1.24,7.625,20.633,20.633,0,0,1-3.451,6.283,15.658,15.658,0,0,1-5.194,4.212,14.423,14.423,0,0,1-6.533,1.483Zm-2.48-8.372a8.542,8.542,0,0,0,3.92-.9,10.041,10.041,0,0,0,3.079-2.412A10.681,10.681,0,0,0,282.1-28.8a13.127,13.127,0,0,0,.7-4.3,13.9,13.9,0,0,0-1.172-5.728,10.751,10.751,0,0,0-3.216-4.215,7.6,7.6,0,0,0-4.791-1.586,7.639,7.639,0,0,0-3.719.972,10.842,10.842,0,0,0-3.151,2.629,13.315,13.315,0,0,0-2.179,3.746v9a7.366,7.366,0,0,0,1.307,2.594,9.521,9.521,0,0,0,2.111,1.98,10.961,10.961,0,0,0,2.512,1.3,7.615,7.615,0,0,0,2.59.485ZM298.3-14.28V-52.771l8.914.074.068,38.409Zm0-43.916V-67.89h8.914l.068,9.767Zm17.224-9.693H324.5v41.4a5.672,5.672,0,0,0,.8,3.574,2.782,2.782,0,0,0,2.212.921,8.843,8.843,0,0,0,2.212-.295,9.966,9.966,0,0,0,2.011-.734l1.207,7.49a16.306,16.306,0,0,1-4.223,1.469,21.1,21.1,0,0,1-4.356.514,8.519,8.519,0,0,1-6.535-2.467,9.9,9.9,0,0,1-2.312-7.032Zm21.514,53.6V-52.771l8.914.074.067,38.409Zm0-43.916V-67.89h8.914l.067,9.767ZM375.37-16.2q-1.14.514-2.748,1.174a20.756,20.756,0,0,1-3.451,1.064,17.324,17.324,0,0,1-3.719.409,10.868,10.868,0,0,1-4.558-.945,7.365,7.365,0,0,1-3.318-3.02,10.467,10.467,0,0,1-1.24-5.419V-44.825h-4.624v-7.57h4.624v-12.48h8.981v12.48h7.365v7.57h-7.365v18.556a3.887,3.887,0,0,0,1,2.825,3.318,3.318,0,0,0,2.347.869,7.611,7.611,0,0,0,2.747-.513q1.341-.514,2.145-.882Zm5.5,9.4q1.207.295,2.25.514a8.77,8.77,0,0,0,1.776.221A3.2,3.2,0,0,0,387-6.739a6.935,6.935,0,0,0,1.637-2.467,34.76,34.76,0,0,0,1.676-4.957L376.448-52.395h9.317l9.45,28.233,8.31-28.233H412.1L397.359-6.586A14.372,14.372,0,0,1,394.9-1.954a11.768,11.768,0,0,1-4.092,3.286,12.181,12.181,0,0,1-5.462,1.207,12.684,12.684,0,0,1-2.144-.184,14.965,14.965,0,0,1-2.347-.624Z" transform="translate(282.156 1908.877)"/>
    <path id="Path_7-2" data-name="Path 7" d="M251.464-13.593V-48.756L238.929-22.567h-5.3L221.085-48.756v35.171h-9.506V-67.172h10.193l14.463,30.487,14.6-30.487h10.126v53.585Zm16.118-11.549a11.536,11.536,0,0,1,1.964-6.673,12.723,12.723,0,0,1,5.467-4.436,19.61,19.61,0,0,1,8.059-1.566,28.976,28.976,0,0,1,4.615.376,14.749,14.749,0,0,1,4.064,1.207v-2.1a7.651,7.651,0,0,0-2.031-5.706,8.252,8.252,0,0,0-6.026-2,14.4,14.4,0,0,0-5.647,1.131A27.83,27.83,0,0,0,272.4-41.58l-2.96-6.648a28.345,28.345,0,0,1,7.336-3.85,24.215,24.215,0,0,1,7.887-1.283,16.564,16.564,0,0,1,12.02,4.167,15.8,15.8,0,0,1,4.3,11.9v12.426a3.717,3.717,0,0,0,.517,2.233,2.4,2.4,0,0,0,1.682.818v8.227q-1.24.227-2.239.376a11.605,11.605,0,0,1-1.682.151,5.788,5.788,0,0,1-4.167-1.358,5.908,5.908,0,0,1-1.756-3.32l-.21-2.037a16.131,16.131,0,0,1-5.856,5.132,15.468,15.468,0,0,1-7.163,1.812,12.937,12.937,0,0,1-6.44-1.6,11.667,11.667,0,0,1-4.476-4.4,12.348,12.348,0,0,1-1.617-6.3Zm22.455,1.964a10.353,10.353,0,0,0,1.24-1.766,3.424,3.424,0,0,0,.481-1.619v-3.894a17.732,17.732,0,0,0-3.574-1.14,17.811,17.811,0,0,0-3.65-.4,9.857,9.857,0,0,0-5.887,1.655,5.141,5.141,0,0,0-2.313,4.38,5.545,5.545,0,0,0,.756,2.8,5.647,5.647,0,0,0,2.2,2.135,6.938,6.938,0,0,0,3.444.809,10.33,10.33,0,0,0,4.064-.841,9.959,9.959,0,0,0,3.232-2.1Zm53.312,9.585h-9.23V-35.459A12.1,12.1,0,0,0,332.6-42.3,4.853,4.853,0,0,0,328.4-44.46a7.8,7.8,0,0,0-3.753,1.032,11.852,11.852,0,0,0-3.41,2.836,11.342,11.342,0,0,0-2.2,4.163v22.836h-9.22v-39.17h8.334v7.306a14.334,14.334,0,0,1,3.513-4.291,15.349,15.349,0,0,1,4.924-2.687,18.447,18.447,0,0,1,5.887-.934,10.617,10.617,0,0,1,5.544,1.306,8.675,8.675,0,0,1,3.305,3.507,16.5,16.5,0,0,1,1.583,4.962,34.9,34.9,0,0,1,.448,5.6Zm5.78-11.543a11.537,11.537,0,0,1,1.964-6.673,12.723,12.723,0,0,1,5.467-4.436,19.611,19.611,0,0,1,8.059-1.566,28.979,28.979,0,0,1,4.615.376,14.746,14.746,0,0,1,4.064,1.207v-2.1a7.651,7.651,0,0,0-2.031-5.706,8.252,8.252,0,0,0-6.026-2,14.4,14.4,0,0,0-5.647,1.131,27.825,27.825,0,0,0-5.639,3.328l-2.962-6.642a28.344,28.344,0,0,1,7.336-3.85,24.215,24.215,0,0,1,7.887-1.283,16.564,16.564,0,0,1,12.02,4.167,15.8,15.8,0,0,1,4.3,11.9v12.426a3.718,3.718,0,0,0,.517,2.233,2.4,2.4,0,0,0,1.682.818v8.227q-1.241.227-2.239.376a11.6,11.6,0,0,1-1.682.151,5.788,5.788,0,0,1-4.167-1.358,5.908,5.908,0,0,1-1.756-3.32l-.21-2.037a16.131,16.131,0,0,1-5.856,5.132,15.468,15.468,0,0,1-7.163,1.812,12.937,12.937,0,0,1-6.44-1.6,11.669,11.669,0,0,1-4.476-4.4,12.349,12.349,0,0,1-1.619-6.31Zm22.455,1.964a10.355,10.355,0,0,0,1.24-1.766,3.422,3.422,0,0,0,.482-1.619v-3.9a17.731,17.731,0,0,0-3.574-1.14,17.812,17.812,0,0,0-3.65-.4,9.857,9.857,0,0,0-5.887,1.655,5.141,5.141,0,0,0-2.313,4.38,5.546,5.546,0,0,0,.757,2.8,5.648,5.648,0,0,0,2.2,2.135,6.938,6.938,0,0,0,3.444.809,10.33,10.33,0,0,0,4.064-.841,9.959,9.959,0,0,0,3.236-2.1Zm33.893,10.34a14.1,14.1,0,0,1-6.577-1.55,15.515,15.515,0,0,1-5.166-4.348,20.815,20.815,0,0,1-3.341-6.427,24.966,24.966,0,0,1-1.171-7.712,25.107,25.107,0,0,1,1.241-8.015,21.42,21.42,0,0,1,3.478-6.541,15.8,15.8,0,0,1,5.3-4.386,14.817,14.817,0,0,1,6.785-1.55,13.324,13.324,0,0,1,7.369,2.037,16.383,16.383,0,0,1,5.235,5.509v-6.938h8.059v37.408a18.6,18.6,0,0,1-2.582,10.008,16.9,16.9,0,0,1-7.13,6.373,23.317,23.317,0,0,1-10.332,2.212A20.981,20.981,0,0,1,396.73,1.1a20.512,20.512,0,0,1-6.957-6.076l5.027-5.359A14.537,14.537,0,0,0,400-5.961a14.531,14.531,0,0,0,6.646,1.585,13.021,13.021,0,0,0,5.408-1.1,8.946,8.946,0,0,0,3.925-3.41,11.065,11.065,0,0,0,1.472-6.055v-4.981a12.683,12.683,0,0,1-5.063,5.246,13.857,13.857,0,0,1-6.911,1.846Zm3.1-8.076a7.99,7.99,0,0,0,2.893-.53,9.983,9.983,0,0,0,2.548-1.438,10.329,10.329,0,0,0,2.067-2.157,10.95,10.95,0,0,0,1.377-2.536V-37.03a12.8,12.8,0,0,0-2.313-4.089,10.982,10.982,0,0,0-3.305-2.687,8.2,8.2,0,0,0-3.822-.946,7.634,7.634,0,0,0-3.858.984,9.12,9.12,0,0,0-2.962,2.763,13.876,13.876,0,0,0-1.892,3.936,15.437,15.437,0,0,0-.654,4.506,13.4,13.4,0,0,0,.757,4.541,11.878,11.878,0,0,0,2.1,3.711,9.881,9.881,0,0,0,3.169,2.5,8.62,8.62,0,0,0,3.892.906Zm43.392,8.076a18.685,18.685,0,0,1-7.853-1.6,17.757,17.757,0,0,1-5.992-4.4,20.156,20.156,0,0,1-3.822-6.419,21.81,21.81,0,0,1-1.344-7.649,22.6,22.6,0,0,1,2.313-10.227,18.6,18.6,0,0,1,6.612-7.428,18.221,18.221,0,0,1,10.159-2.8,17.823,17.823,0,0,1,10.126,2.8,18.431,18.431,0,0,1,6.44,7.4,22.325,22.325,0,0,1,2.239,9.9q0,.9-.069,1.831t-.137,1.533h-27.9a11.947,11.947,0,0,0,1.619,5.162,9.088,9.088,0,0,0,3.444,3.364,9.293,9.293,0,0,0,4.512,1.144,9.92,9.92,0,0,0,5.2-1.472,7.555,7.555,0,0,0,3.341-3.887l7.92,2.416a16.372,16.372,0,0,1-3.753,5.359,17.744,17.744,0,0,1-5.75,3.66,19.513,19.513,0,0,1-7.3,1.31ZM442.532-36.3H461.4a12.279,12.279,0,0,0-1.55-5.126,9.317,9.317,0,0,0-3.341-3.394,8.924,8.924,0,0,0-4.615-1.217,8.62,8.62,0,0,0-4.512,1.217,9.409,9.409,0,0,0-3.305,3.393A12.276,12.276,0,0,0,442.53-36.3ZM532.762-13.6h-9.23V-35.464a12.359,12.359,0,0,0-1.472-6.806,4.682,4.682,0,0,0-4.1-2.2A7.489,7.489,0,0,0,512.83-42.2a12.517,12.517,0,0,0-3.478,5.912V-13.6h-9.23V-35.464a12.329,12.329,0,0,0-1.472-6.844,4.7,4.7,0,0,0-4.1-2.157,7.584,7.584,0,0,0-5.132,2.212,12.141,12.141,0,0,0-3.478,5.822V-13.6h-9.23v-39.17h8.334v7.306a14.941,14.941,0,0,1,5.511-5.858,15.174,15.174,0,0,1,7.92-2.052,9.743,9.743,0,0,1,6.991,2.388,10.792,10.792,0,0,1,3.2,5.887,16.224,16.224,0,0,1,5.614-6.156,14.211,14.211,0,0,1,7.681-2.128,10.248,10.248,0,0,1,5.467,1.306,9.075,9.075,0,0,1,3.271,3.507,15.913,15.913,0,0,1,1.619,4.962,34.919,34.919,0,0,1,.448,5.6Zm25,.755a18.685,18.685,0,0,1-7.853-1.6,17.759,17.759,0,0,1-5.992-4.4,20.152,20.152,0,0,1-3.822-6.419,21.807,21.807,0,0,1-1.344-7.649,22.6,22.6,0,0,1,2.313-10.227,18.593,18.593,0,0,1,6.612-7.428,18.221,18.221,0,0,1,10.159-2.8,17.823,17.823,0,0,1,10.126,2.8,18.432,18.432,0,0,1,6.44,7.4,22.329,22.329,0,0,1,2.239,9.905q0,.9-.069,1.831t-.139,1.533h-27.9a11.944,11.944,0,0,0,1.619,5.162,9.089,9.089,0,0,0,3.444,3.364,9.293,9.293,0,0,0,4.512,1.144,9.92,9.92,0,0,0,5.2-1.472,7.554,7.554,0,0,0,3.341-3.888l7.92,2.416a16.372,16.372,0,0,1-3.753,5.359,17.742,17.742,0,0,1-5.75,3.66,19.513,19.513,0,0,1-7.3,1.32Zm-9.436-23.473H567.2a12.278,12.278,0,0,0-1.55-5.126,9.316,9.316,0,0,0-3.341-3.393,8.923,8.923,0,0,0-4.615-1.217,8.62,8.62,0,0,0-4.512,1.217,9.408,9.408,0,0,0-3.305,3.393,12.273,12.273,0,0,0-1.554,5.136Zm67.7,22.707H606.8V-35.474a12.106,12.106,0,0,0-1.516-6.844,4.853,4.853,0,0,0-4.205-2.157,7.8,7.8,0,0,0-3.753,1.032,11.854,11.854,0,0,0-3.41,2.836,11.339,11.339,0,0,0-2.2,4.163v22.836h-9.23v-39.17h8.334v7.306a14.334,14.334,0,0,1,3.513-4.291,15.349,15.349,0,0,1,4.924-2.687,18.447,18.447,0,0,1,5.887-.934,10.618,10.618,0,0,1,5.544,1.306,8.674,8.674,0,0,1,3.305,3.507,16.506,16.506,0,0,1,1.583,4.962,34.926,34.926,0,0,1,.448,5.6Zm29.686-1.962q-1.171.528-2.824,1.207a21.333,21.333,0,0,1-3.547,1.093,17.806,17.806,0,0,1-3.822.421,11.167,11.167,0,0,1-4.684-.971,7.569,7.569,0,0,1-3.41-3.1,10.756,10.756,0,0,1-1.274-5.57v-22.5h-4.748V-52.77h4.752V-65.6h9.23V-52.77h7.569v7.779h-7.569v19.07a4,4,0,0,0,1.032,2.9,3.41,3.41,0,0,0,2.412.894,7.825,7.825,0,0,0,2.822-.527q1.379-.528,2.2-.907Z" transform="translate(60.215 1989.589)"/>
  </g>
</svg>
