<svg xmlns="http://www.w3.org/2000/svg" width="417.877" height="345.702" viewBox="0 0 417.877 345.702">
  <g id="AIsaac-VM-logo-3" transform="translate(-297.025 -1552.71)">
    <g id="Component_1_3" data-name="Component 1 – 3" transform="translate(335.794 1552.71)">
      <path id="Path_3" data-name="Path 3" d="M123.291-283.29h23.541L264.537,0H235.011l-35.4-88.578H70.118L34.713,0H4.788Zm67.543,172.767L134.862-250.572,78.89-110.523ZM305.235,0V-283.29h27.93V0Z" transform="translate(-4.788 283.29)"/>
    </g>
    <path id="Path_7" data-name="Path 7" d="M4.936-67.172l6.29,19.6,6.224-19.6H22.2L13.388-41.686H9.031L.186-67.172Zm17.919,18.52V-60.316h4.39v10.605a5.825,5.825,0,0,0,.721,3.21A2.393,2.393,0,0,0,30.1-45.419a4.141,4.141,0,0,0,1.687-.369,4.822,4.822,0,0,0,1.54-1.107,6.351,6.351,0,0,0,1.2-1.864V-60.316h4.39v13.264a1.775,1.775,0,0,0,.246,1.064,1.142,1.142,0,0,0,.8.39v3.913q-.655.108-1.1.162a6.693,6.693,0,0,1-.8.054,2.983,2.983,0,0,1-1.916-.587,2.358,2.358,0,0,1-.868-1.618l-.1-1.492A7.763,7.763,0,0,1,32.225-42.3a8.175,8.175,0,0,1-3.964.978,4.692,4.692,0,0,1-4.029-1.867A9.123,9.123,0,0,1,22.855-48.653ZM43.33-67.89h4.39v20.238a2.772,2.772,0,0,0,.393,1.747,1.36,1.36,0,0,0,1.081.45,4.323,4.323,0,0,0,1.081-.144,4.873,4.873,0,0,0,.983-.359l.59,3.661a7.97,7.97,0,0,1-2.064.718,10.314,10.314,0,0,1-2.129.251,4.164,4.164,0,0,1-3.194-1.206,4.838,4.838,0,0,1-1.13-3.437ZM69.8-41.686H65.41v-10.4a5.757,5.757,0,0,0-.721-3.255,2.308,2.308,0,0,0-2-1.026,3.709,3.709,0,0,0-1.785.491,5.637,5.637,0,0,0-1.622,1.349,5.394,5.394,0,0,0-1.048,1.98v10.861h-4.39v-18.63h3.964v3.475a6.817,6.817,0,0,1,1.671-2.041,7.3,7.3,0,0,1,2.342-1.278,8.774,8.774,0,0,1,2.8-.444,5.05,5.05,0,0,1,2.637.621,4.126,4.126,0,0,1,1.572,1.668,7.849,7.849,0,0,1,.753,2.36,16.606,16.606,0,0,1,.213,2.662Zm11.892.359a8.887,8.887,0,0,1-3.735-.763,8.446,8.446,0,0,1-2.85-2.094,9.587,9.587,0,0,1-1.818-3.053,10.373,10.373,0,0,1-.639-3.638,10.749,10.749,0,0,1,1.1-4.864,8.844,8.844,0,0,1,3.145-3.533A8.666,8.666,0,0,1,81.724-60.6a8.477,8.477,0,0,1,4.816,1.333A8.766,8.766,0,0,1,89.6-55.75a10.618,10.618,0,0,1,1.065,4.711q0,.426-.033.871t-.066.729H77.3a5.682,5.682,0,0,0,.77,2.455,4.323,4.323,0,0,0,1.638,1.6,4.419,4.419,0,0,0,2.146.544,4.718,4.718,0,0,0,2.473-.7,3.593,3.593,0,0,0,1.589-1.849l3.767,1.149A7.787,7.787,0,0,1,87.9-43.7a8.438,8.438,0,0,1-2.735,1.741A9.281,9.281,0,0,1,81.691-41.327ZM77.2-52.491h8.976a5.839,5.839,0,0,0-.737-2.438,4.431,4.431,0,0,0-1.589-1.614,4.244,4.244,0,0,0-2.195-.579,4.1,4.1,0,0,0-2.146.579,4.475,4.475,0,0,0-1.572,1.614A5.839,5.839,0,0,0,77.2-52.491Zm26.469-3.841a7.434,7.434,0,0,0-3.571.844,4.922,4.922,0,0,0-2.26,2.423v11.379h-4.39v-18.63h4.029v3.841a8.351,8.351,0,0,1,2.326-3.051,5.347,5.347,0,0,1,2.981-1.22h.557a1.263,1.263,0,0,1,.328.036Zm1.278,9.152a5.487,5.487,0,0,1,.934-3.174,6.051,6.051,0,0,1,2.6-2.11,9.327,9.327,0,0,1,3.833-.745,13.782,13.782,0,0,1,2.195.179,7.014,7.014,0,0,1,1.933.574v-1a3.639,3.639,0,0,0-.966-2.714,3.925,3.925,0,0,0-2.866-.952,6.847,6.847,0,0,0-2.686.538A13.237,13.237,0,0,0,107.243-55l-1.409-3.159a13.481,13.481,0,0,1,3.489-1.831,11.517,11.517,0,0,1,3.751-.61,7.878,7.878,0,0,1,5.716,1.982,7.517,7.517,0,0,1,2.047,5.662v5.91a1.768,1.768,0,0,0,.246,1.062,1.144,1.144,0,0,0,.8.389v3.913q-.59.108-1.065.179a5.52,5.52,0,0,1-.8.072,2.753,2.753,0,0,1-1.982-.646,2.81,2.81,0,0,1-.835-1.579l-.1-.969a7.672,7.672,0,0,1-2.785,2.441,7.357,7.357,0,0,1-3.407.862,6.152,6.152,0,0,1-3.063-.763,5.549,5.549,0,0,1-2.129-2.093A5.873,5.873,0,0,1,104.95-47.179Zm10.68.934a4.924,4.924,0,0,0,.59-.84,1.629,1.629,0,0,0,.229-.77V-49.71a8.434,8.434,0,0,0-1.7-.542,8.471,8.471,0,0,0-1.736-.192,4.688,4.688,0,0,0-2.8.787,2.445,2.445,0,0,0-1.1,2.083,2.638,2.638,0,0,0,.36,1.33,2.686,2.686,0,0,0,1.048,1.015,3.3,3.3,0,0,0,1.638.385,4.914,4.914,0,0,0,1.933-.4A4.737,4.737,0,0,0,115.63-46.245Zm19.164,4.918a6.441,6.441,0,0,1-3.505-.969,6.8,6.8,0,0,1-2.424-2.656v3.267h-3.833v-26.2h4.39v10.912a7.2,7.2,0,0,1,2.408-2.656,6.256,6.256,0,0,1,3.489-.969,6.173,6.173,0,0,1,3.047.763,7.427,7.427,0,0,1,2.375,2.112,10.253,10.253,0,0,1,1.54,3.088,12.5,12.5,0,0,1,.541,3.727,11.251,11.251,0,0,1-.606,3.727,10.087,10.087,0,0,1-1.687,3.071,7.654,7.654,0,0,1-2.539,2.059A7.05,7.05,0,0,1,134.794-41.327Zm-1.212-4.092a4.175,4.175,0,0,0,1.916-.44A4.908,4.908,0,0,0,137-47.039a5.222,5.222,0,0,0,.983-1.743,6.417,6.417,0,0,0,.344-2.1,6.794,6.794,0,0,0-.573-2.8,5.256,5.256,0,0,0-1.572-2.06,3.713,3.713,0,0,0-2.342-.775,3.734,3.734,0,0,0-1.818.475,5.3,5.3,0,0,0-1.54,1.285,6.508,6.508,0,0,0-1.065,1.831v4.4a3.6,3.6,0,0,0,.639,1.268,4.654,4.654,0,0,0,1.032.968,5.357,5.357,0,0,0,1.228.634A3.722,3.722,0,0,0,133.582-45.419ZM145.9-41.686V-60.5l4.357.036.033,18.774Zm0-21.466V-67.89h4.357l.033,4.774Zm8.419-4.738h4.39v20.238a2.773,2.773,0,0,0,.393,1.747,1.36,1.36,0,0,0,1.081.45,4.323,4.323,0,0,0,1.081-.144,4.874,4.874,0,0,0,.983-.359l.59,3.661a7.97,7.97,0,0,1-2.064.718,10.314,10.314,0,0,1-2.129.251,4.164,4.164,0,0,1-3.194-1.206,4.838,4.838,0,0,1-1.13-3.437Zm10.516,26.2V-60.5l4.357.036.033,18.774Zm0-21.466V-67.89h4.357l.033,4.774Zm18.738,20.533q-.557.251-1.343.574a10.145,10.145,0,0,1-1.687.52,8.469,8.469,0,0,1-1.818.2,5.312,5.312,0,0,1-2.228-.462,3.6,3.6,0,0,1-1.622-1.476,5.116,5.116,0,0,1-.606-2.649v-10.7h-2.26v-3.7h2.26v-6.1h4.39v6.1h3.6v3.7h-3.6v9.07a1.9,1.9,0,0,0,.491,1.381,1.622,1.622,0,0,0,1.147.425,3.721,3.721,0,0,0,1.343-.251q.655-.251,1.048-.431Zm2.686,4.595q.59.144,1.1.251a4.287,4.287,0,0,0,.868.108A1.565,1.565,0,0,0,189.256-38a3.389,3.389,0,0,0,.8-1.206,16.984,16.984,0,0,0,.819-2.423L184.1-60.316h4.554l4.619,13.8,4.062-13.8h4.193l-7.207,22.391a7.026,7.026,0,0,1-1.2,2.264,5.752,5.752,0,0,1-2,1.606,5.954,5.954,0,0,1-2.67.59,6.2,6.2,0,0,1-1.048-.09,7.313,7.313,0,0,1-1.147-.305Zm44.29-3.661V-58.413l-5.962,12.456h-2.522L216.1-58.413v16.728h-4.521V-67.172h4.848l6.879,14.5,6.945-14.5h4.816v25.486Zm7.666-5.493a5.487,5.487,0,0,1,.934-3.174,6.051,6.051,0,0,1,2.6-2.11,9.327,9.327,0,0,1,3.833-.745,13.782,13.782,0,0,1,2.195.179,7.015,7.015,0,0,1,1.933.574v-1a3.639,3.639,0,0,0-.966-2.714,3.925,3.925,0,0,0-2.866-.952,6.847,6.847,0,0,0-2.686.538A13.236,13.236,0,0,0,240.508-55L239.1-58.162a13.482,13.482,0,0,1,3.489-1.831,11.517,11.517,0,0,1,3.751-.61,7.878,7.878,0,0,1,5.717,1.982,7.517,7.517,0,0,1,2.047,5.662v5.91a1.768,1.768,0,0,0,.246,1.062,1.144,1.144,0,0,0,.8.389v3.913q-.59.108-1.065.179a5.52,5.52,0,0,1-.8.072,2.753,2.753,0,0,1-1.982-.646,2.81,2.81,0,0,1-.835-1.579l-.1-.969a7.672,7.672,0,0,1-2.785,2.441,7.357,7.357,0,0,1-3.407.862,6.153,6.153,0,0,1-3.063-.763,5.549,5.549,0,0,1-2.129-2.093A5.873,5.873,0,0,1,238.215-47.179Zm10.68.934a4.923,4.923,0,0,0,.59-.84,1.628,1.628,0,0,0,.229-.77V-49.71a8.434,8.434,0,0,0-1.7-.542,8.471,8.471,0,0,0-1.736-.192,4.688,4.688,0,0,0-2.8.787,2.445,2.445,0,0,0-1.1,2.083,2.638,2.638,0,0,0,.36,1.33,2.686,2.686,0,0,0,1.048,1.015,3.3,3.3,0,0,0,1.638.385,4.913,4.913,0,0,0,1.933-.4A4.737,4.737,0,0,0,248.894-46.245Zm25.356,4.559h-4.39v-10.4a5.757,5.757,0,0,0-.721-3.255,2.308,2.308,0,0,0-2-1.026,3.709,3.709,0,0,0-1.785.491,5.637,5.637,0,0,0-1.622,1.349,5.394,5.394,0,0,0-1.048,1.98v10.861H258.3v-18.63h3.964v3.475a6.817,6.817,0,0,1,1.671-2.041,7.3,7.3,0,0,1,2.342-1.278,8.774,8.774,0,0,1,2.8-.444,5.05,5.05,0,0,1,2.637.621,4.126,4.126,0,0,1,1.572,1.668,7.848,7.848,0,0,1,.753,2.36,16.6,16.6,0,0,1,.213,2.662ZM277-47.179a5.487,5.487,0,0,1,.934-3.174,6.051,6.051,0,0,1,2.6-2.11,9.327,9.327,0,0,1,3.833-.745,13.782,13.782,0,0,1,2.195.179,7.014,7.014,0,0,1,1.933.574v-1a3.639,3.639,0,0,0-.966-2.714,3.925,3.925,0,0,0-2.866-.952,6.847,6.847,0,0,0-2.686.538A13.236,13.236,0,0,0,279.295-55l-1.409-3.159a13.482,13.482,0,0,1,3.489-1.831,11.517,11.517,0,0,1,3.751-.61,7.878,7.878,0,0,1,5.717,1.982,7.517,7.517,0,0,1,2.047,5.662v5.91a1.768,1.768,0,0,0,.246,1.062,1.144,1.144,0,0,0,.8.389v3.913q-.59.108-1.065.179a5.519,5.519,0,0,1-.8.072,2.753,2.753,0,0,1-1.982-.646,2.81,2.81,0,0,1-.835-1.579l-.1-.969a7.672,7.672,0,0,1-2.785,2.441,7.357,7.357,0,0,1-3.407.862,6.153,6.153,0,0,1-3.063-.763,5.55,5.55,0,0,1-2.129-2.093A5.873,5.873,0,0,1,277-47.179Zm10.68.934a4.925,4.925,0,0,0,.59-.84,1.628,1.628,0,0,0,.229-.77V-49.71a8.433,8.433,0,0,0-1.7-.542,8.471,8.471,0,0,0-1.736-.192,4.688,4.688,0,0,0-2.8.787,2.445,2.445,0,0,0-1.1,2.083,2.638,2.638,0,0,0,.36,1.33,2.686,2.686,0,0,0,1.048,1.015,3.3,3.3,0,0,0,1.638.385,4.913,4.913,0,0,0,1.933-.4A4.737,4.737,0,0,0,287.681-46.245ZM303.8-41.327a6.706,6.706,0,0,1-3.128-.737,7.379,7.379,0,0,1-2.457-2.068,9.9,9.9,0,0,1-1.589-3.057,11.876,11.876,0,0,1-.557-3.668,11.941,11.941,0,0,1,.59-3.812,10.188,10.188,0,0,1,1.654-3.111,7.512,7.512,0,0,1,2.522-2.086,7.047,7.047,0,0,1,3.227-.737,6.337,6.337,0,0,1,3.505.969,7.792,7.792,0,0,1,2.49,2.62v-3.3h3.833v17.792a8.848,8.848,0,0,1-1.228,4.76,8.038,8.038,0,0,1-3.391,3.031,11.09,11.09,0,0,1-4.914,1.052,9.979,9.979,0,0,1-4.717-1.023,9.756,9.756,0,0,1-3.309-2.89l2.391-2.549a6.914,6.914,0,0,0,2.473,2.082,6.911,6.911,0,0,0,3.161.754,6.193,6.193,0,0,0,2.572-.524,4.255,4.255,0,0,0,1.867-1.622,5.263,5.263,0,0,0,.7-2.88V-44.7a6.032,6.032,0,0,1-2.408,2.495A6.591,6.591,0,0,1,303.8-41.327Zm1.474-3.841a3.8,3.8,0,0,0,1.376-.252,4.749,4.749,0,0,0,1.212-.684,4.913,4.913,0,0,0,.983-1.026,5.209,5.209,0,0,0,.655-1.206v-4.5a6.087,6.087,0,0,0-1.1-1.945,5.223,5.223,0,0,0-1.572-1.278,3.9,3.9,0,0,0-1.818-.45,3.631,3.631,0,0,0-1.835.468,4.337,4.337,0,0,0-1.409,1.314,6.6,6.6,0,0,0-.9,1.872,7.342,7.342,0,0,0-.311,2.143,6.373,6.373,0,0,0,.36,2.16,5.65,5.65,0,0,0,1,1.765,4.7,4.7,0,0,0,1.507,1.188A4.1,4.1,0,0,0,305.273-45.168Zm20.638,3.841a8.887,8.887,0,0,1-3.735-.763,8.446,8.446,0,0,1-2.85-2.094,9.587,9.587,0,0,1-1.818-3.053,10.373,10.373,0,0,1-.639-3.638,10.749,10.749,0,0,1,1.1-4.864,8.844,8.844,0,0,1,3.145-3.533,8.666,8.666,0,0,1,4.832-1.331,8.477,8.477,0,0,1,4.816,1.333,8.766,8.766,0,0,1,3.063,3.52,10.618,10.618,0,0,1,1.065,4.711q0,.426-.033.871t-.065.729H321.521a5.682,5.682,0,0,0,.77,2.455,4.323,4.323,0,0,0,1.638,1.6,4.42,4.42,0,0,0,2.146.544,4.718,4.718,0,0,0,2.473-.7,3.593,3.593,0,0,0,1.589-1.849l3.767,1.149a7.787,7.787,0,0,1-1.785,2.549,8.439,8.439,0,0,1-2.735,1.741A9.281,9.281,0,0,1,325.911-41.327Zm-4.488-11.164H330.4a5.84,5.84,0,0,0-.737-2.438,4.431,4.431,0,0,0-1.589-1.614,4.244,4.244,0,0,0-2.195-.579,4.1,4.1,0,0,0-2.146.579,4.475,4.475,0,0,0-1.572,1.614A5.839,5.839,0,0,0,321.423-52.491Zm42.915,10.8h-4.39v-10.4a5.878,5.878,0,0,0-.7-3.237,2.227,2.227,0,0,0-1.949-1.044,3.562,3.562,0,0,0-2.441,1.079,5.953,5.953,0,0,0-1.654,2.812v10.79h-4.39v-10.4a5.864,5.864,0,0,0-.7-3.255,2.237,2.237,0,0,0-1.949-1.026,3.607,3.607,0,0,0-2.441,1.052,5.775,5.775,0,0,0-1.654,2.769v10.861h-4.39v-18.63h3.964v3.475a7.106,7.106,0,0,1,2.621-2.786,7.217,7.217,0,0,1,3.767-.976,4.634,4.634,0,0,1,3.325,1.136,5.133,5.133,0,0,1,1.523,2.8,7.717,7.717,0,0,1,2.67-2.928,6.759,6.759,0,0,1,3.653-1.012,4.874,4.874,0,0,1,2.6.621,4.316,4.316,0,0,1,1.556,1.668,7.568,7.568,0,0,1,.77,2.36,16.609,16.609,0,0,1,.213,2.662Zm11.892.359a8.887,8.887,0,0,1-3.735-.763,8.446,8.446,0,0,1-2.85-2.094,9.586,9.586,0,0,1-1.818-3.053,10.374,10.374,0,0,1-.639-3.638,10.748,10.748,0,0,1,1.1-4.864,8.843,8.843,0,0,1,3.145-3.533,8.666,8.666,0,0,1,4.832-1.331,8.477,8.477,0,0,1,4.816,1.333,8.766,8.766,0,0,1,3.063,3.52,10.619,10.619,0,0,1,1.065,4.711q0,.426-.033.871t-.066.729H371.84a5.681,5.681,0,0,0,.77,2.455,4.323,4.323,0,0,0,1.638,1.6,4.42,4.42,0,0,0,2.146.544,4.718,4.718,0,0,0,2.473-.7,3.593,3.593,0,0,0,1.589-1.849l3.767,1.149a7.786,7.786,0,0,1-1.785,2.549,8.439,8.439,0,0,1-2.735,1.741A9.281,9.281,0,0,1,376.229-41.327Zm-4.488-11.164h8.976a5.839,5.839,0,0,0-.737-2.438,4.431,4.431,0,0,0-1.589-1.614,4.244,4.244,0,0,0-2.195-.579,4.1,4.1,0,0,0-2.146.579,4.475,4.475,0,0,0-1.572,1.614A5.839,5.839,0,0,0,371.741-52.491Zm32.2,10.8h-4.39v-10.4a5.757,5.757,0,0,0-.721-3.255,2.308,2.308,0,0,0-2-1.026,3.709,3.709,0,0,0-1.785.491,5.638,5.638,0,0,0-1.622,1.349,5.393,5.393,0,0,0-1.048,1.98v10.861h-4.39v-18.63h3.964v3.475a6.817,6.817,0,0,1,1.671-2.041,7.3,7.3,0,0,1,2.342-1.278,8.774,8.774,0,0,1,2.8-.444,5.05,5.05,0,0,1,2.637.621,4.126,4.126,0,0,1,1.572,1.668,7.85,7.85,0,0,1,.753,2.36,16.609,16.609,0,0,1,.213,2.662Zm14.119-.933q-.557.251-1.343.574a10.145,10.145,0,0,1-1.687.52,8.469,8.469,0,0,1-1.818.2,5.311,5.311,0,0,1-2.228-.462,3.6,3.6,0,0,1-1.622-1.476,5.116,5.116,0,0,1-.606-2.649v-10.7H406.5v-3.7h2.26v-6.1h4.39v6.1h3.6v3.7h-3.6v9.07a1.9,1.9,0,0,0,.491,1.381,1.622,1.622,0,0,0,1.147.425,3.722,3.722,0,0,0,1.343-.251q.655-.251,1.048-.431Z" transform="translate(296.839 1931.877)"/>
  </g>
</svg>
