<svg xmlns="http://www.w3.org/2000/svg" width="1197.7" height="415.587" viewBox="0 0 1197.7 415.587">
  <g id="AIsaac-VM-logo" transform="translate(-229.794 -1529.71)">
    <g id="Component_1_2" data-name="Component 1 – 2" transform="translate(229.794 1529.71)">
      <path id="Path_3" data-name="Path 3" d="M123.291-283.29h23.541L264.537,0H235.011l-35.4-88.578H70.118L34.713,0H4.788Zm67.543,172.767L134.862-250.572,78.89-110.523ZM305.235,0V-283.29h27.93V0Zm159.6,3.99a132.008,132.008,0,0,1-47.481-8.379,99.637,99.637,0,0,1-37.9-25.536l11.172-19.152q17.556,16.359,35.311,23.74a97.236,97.236,0,0,0,37.706,7.382q24.339,0,39.5-9.691T518.3-55.53q0-12.3-7.382-18.847T489.773-85.09q-13.766-4.168-32.918-8.925a255.278,255.278,0,0,1-36.109-12.5q-14.564-6.546-21.945-16.664t-7.382-26.384q0-20.237,10.174-33.528t27.93-20.237q17.756-6.945,39.7-6.945,23.94,0,42.294,7.581t29.925,21.147l-13.167,18.354a69.194,69.194,0,0,0-26.534-18.952,90.58,90.58,0,0,0-34.115-6.185,86.62,86.62,0,0,0-24.339,3.37,41.7,41.7,0,0,0-18.953,11.1q-7.381,7.734-7.381,21.212,0,11.1,5.586,17.251T439.3-125.08q11.172,4.165,27.531,8.921,23.541,6.347,41.1,12.89t27.132,16.852q9.576,10.309,9.576,28.943,0,28.946-21.945,45.205T464.835,3.99Zm107.73-63.441q0-19.426,11.172-33.5t30.922-21.808q19.751-7.731,45.686-7.731a217.761,217.761,0,0,1,31.521,2.394,141.39,141.39,0,0,1,29.127,7.182v-17.506q0-26.172-15.561-41.639T662.34-187.53a91.4,91.4,0,0,0-32.918,6.185,165.54,165.54,0,0,0-33.715,18.154l-10.374-19.152q20.349-13.965,39.9-20.948a117.812,117.812,0,0,1,39.9-6.982q38.3,0,60.648,21.808T748.125-128.2v95.548q0,5.555,2.394,8.13t7.581,2.974V0q-4.389.4-7.581.8a14.071,14.071,0,0,1-4.788,0q-9.975-.4-15.162-6.384a21.187,21.187,0,0,1-5.586-12.768l-.4-15.162Q710.619-15.561,688.275-5.786A112.483,112.483,0,0,1,642.789,3.99,76.179,76.179,0,0,1,606.68-4.536a63.981,63.981,0,0,1-25.137-23A59.358,59.358,0,0,1,572.565-59.451Zm139.251,15.8A54.425,54.425,0,0,0,718.6-54.32a22.016,22.016,0,0,0,2.394-9.1v-30.05a167.68,167.68,0,0,0-28.13-7.905,156.717,156.717,0,0,0-29.327-2.768q-29.127,0-47.082,11.465T598.5-61.44a41.517,41.517,0,0,0,5.985,21.552,46.216,46.216,0,0,0,17.556,16.605q11.571,6.524,27.132,6.524a89.112,89.112,0,0,0,36.508-7.512Q702.639-31.783,711.816-43.647Zm78.2-15.8q0-19.426,11.172-33.5t30.922-21.808q19.751-7.731,45.686-7.731a217.761,217.761,0,0,1,31.521,2.394,141.389,141.389,0,0,1,29.127,7.182v-17.506q0-26.172-15.561-41.639T879.8-187.53a91.4,91.4,0,0,0-32.917,6.185,165.54,165.54,0,0,0-33.716,18.154l-10.374-19.152q20.349-13.965,39.9-20.948a117.812,117.812,0,0,1,39.9-6.982q38.3,0,60.648,21.808T965.58-128.2v95.548q0,5.555,2.394,8.13t7.581,2.974V0q-4.389.4-7.581.8a14.071,14.071,0,0,1-4.788,0q-9.975-.4-15.162-6.384a21.187,21.187,0,0,1-5.586-12.768l-.4-15.162Q928.074-15.561,905.73-5.786A112.483,112.483,0,0,1,860.244,3.99a76.179,76.179,0,0,1-36.109-8.526,63.981,63.981,0,0,1-25.137-23A59.358,59.358,0,0,1,790.02-59.451Zm139.251,15.8a54.425,54.425,0,0,0,6.783-10.673,22.016,22.016,0,0,0,2.394-9.1v-30.05a167.68,167.68,0,0,0-28.13-7.905,156.717,156.717,0,0,0-29.327-2.768q-29.127,0-47.082,11.465T815.955-61.44a41.517,41.517,0,0,0,5.985,21.552A46.216,46.216,0,0,0,839.5-23.282q11.571,6.524,27.132,6.524a89.112,89.112,0,0,0,36.508-7.512Q920.094-31.783,929.271-43.647ZM1114.407,3.99a100.408,100.408,0,0,1-41.7-8.532,103,103,0,0,1-33.117-23.61,109.209,109.209,0,0,1-21.945-34.52,110.014,110.014,0,0,1-7.781-41.262q0-29.364,13.167-53.569a100.325,100.325,0,0,1,36.708-38.488q23.541-14.283,54.264-14.283,29.127,0,51.471,13.367A82.6,82.6,0,0,1,1198.6-160.8l-26.334,8.379a63.213,63.213,0,0,0-24.538-24.937,69.29,69.29,0,0,0-34.912-8.977,70.234,70.234,0,0,0-37.905,10.7,77.717,77.717,0,0,0-27.332,29.314Q1037.4-127.7,1037.4-103.933q0,23.373,10.374,42.388A83.319,83.319,0,0,0,1075.3-31.24a67.507,67.507,0,0,0,37.905,11.29,72.8,72.8,0,0,0,26.135-4.788,72.04,72.04,0,0,0,21.945-12.968q9.376-8.179,12.568-17.756l26.733,7.98a68.427,68.427,0,0,1-18.553,26.534,94.44,94.44,0,0,1-30.324,18.354A104.316,104.316,0,0,1,1114.407,3.99Z" transform="translate(-4.788 283.29)"/>
    </g>
    <path id="Path_7" data-name="Path 7" d="M13.671-66.03,31.527-15.252,49.2-66.03H62.682L37.665,0H25.3L.186-66.03ZM64.542-18.049V-48.267H77v27.476q0,5.513,2.046,8.316a7.007,7.007,0,0,0,6.045,2.8,12.713,12.713,0,0,0,4.789-.956A13.733,13.733,0,0,0,94.256-13.5a16.373,16.373,0,0,0,3.395-4.828V-48.267h12.462V-13.9a4.288,4.288,0,0,0,.7,2.756,3.361,3.361,0,0,0,2.279,1.011V0q-1.86.279-3.115.419a20.8,20.8,0,0,1-2.279.139,9.032,9.032,0,0,1-5.44-1.521,5.981,5.981,0,0,1-2.465-4.191L99.51-9.02A21.273,21.273,0,0,1,91.14-1.6,25,25,0,0,1,79.887.93q-7.533,0-11.439-4.837T64.542-18.049ZM122.667-67.89h12.462v52.433q0,3.36,1.116,4.526a4.047,4.047,0,0,0,3.069,1.166,13.382,13.382,0,0,0,3.069-.372,14.7,14.7,0,0,0,2.79-.93l1.674,9.486a24.1,24.1,0,0,1-5.859,1.86,31.963,31.963,0,0,1-6.045.651q-5.859,0-9.068-3.124t-3.208-8.9ZM197.811,0H185.349V-26.947q0-5.775-2.046-8.432a6.758,6.758,0,0,0-5.673-2.658,11.313,11.313,0,0,0-5.068,1.271,15.767,15.767,0,0,0-4.6,3.5,13.62,13.62,0,0,0-2.976,5.131V0H152.52V-48.267h11.253v9a18.11,18.11,0,0,1,4.743-5.288,21.386,21.386,0,0,1,6.649-3.31,27.1,27.1,0,0,1,7.952-1.149A15.447,15.447,0,0,1,190.6-47.4a11.167,11.167,0,0,1,4.464,4.322,19.1,19.1,0,0,1,2.139,6.115,39.353,39.353,0,0,1,.6,6.9ZM231.57.93a27.311,27.311,0,0,1-10.6-1.977,23.975,23.975,0,0,1-8.091-5.426,24.5,24.5,0,0,1-5.161-7.909,24.785,24.785,0,0,1-1.813-9.426,25.853,25.853,0,0,1,3.115-12.6,23.757,23.757,0,0,1,8.928-9.153,26.386,26.386,0,0,1,13.717-3.449,25.8,25.8,0,0,1,13.671,3.454,23.479,23.479,0,0,1,8.7,9.119,25.535,25.535,0,0,1,3.022,12.206q0,1.1-.093,2.256t-.186,1.888H219.108a13.833,13.833,0,0,0,2.186,6.36,11.841,11.841,0,0,0,4.65,4.135,13.507,13.507,0,0,0,6.091,1.409A14.366,14.366,0,0,0,239.057-10a9.6,9.6,0,0,0,4.51-4.79l10.7,2.976a20.272,20.272,0,0,1-5.068,6.6A24.351,24.351,0,0,1,241.428-.7,28.6,28.6,0,0,1,231.57.93ZM218.829-27.993h25.482a14.19,14.19,0,0,0-2.092-6.317,12.067,12.067,0,0,0-4.51-4.181,12.949,12.949,0,0,0-6.231-1.5,12.49,12.49,0,0,0-6.092,1.5,12.172,12.172,0,0,0-4.464,4.181A14.189,14.189,0,0,0,218.829-27.993Zm75.144-9.951a22.758,22.758,0,0,0-10.137,2.185,13.3,13.3,0,0,0-6.417,6.278V0H264.957V-48.267H276.4v9.951a22,22,0,0,1,6.6-7.9,16,16,0,0,1,8.463-3.162h1.581a3.913,3.913,0,0,1,.93.093ZM297.6-14.232a13.34,13.34,0,0,1,2.65-8.224,16.957,16.957,0,0,1,7.393-5.467,28.69,28.69,0,0,1,10.881-1.93,42.788,42.788,0,0,1,6.231.465,21.354,21.354,0,0,1,5.487,1.488v-2.592a8.966,8.966,0,0,0-2.743-7.032q-2.744-2.466-8.138-2.466a21.06,21.06,0,0,0-7.626,1.4A38.561,38.561,0,0,0,304.11-34.5l-4-8.184a39.677,39.677,0,0,1,9.9-4.743,35.554,35.554,0,0,1,10.648-1.581q10.416,0,16.228,5.135T342.7-29.208V-13.9a4.273,4.273,0,0,0,.7,2.751,3.366,3.366,0,0,0,2.279,1.008V0q-1.674.279-3.022.465a17.132,17.132,0,0,1-2.279.186,8.3,8.3,0,0,1-5.627-1.674,7.1,7.1,0,0,1-2.371-4.092L332.1-7.626A21.3,21.3,0,0,1,324.2-1.3,22.5,22.5,0,0,1,314.526.93a18.807,18.807,0,0,1-8.7-1.976,15.174,15.174,0,0,1-6.045-5.422A14.192,14.192,0,0,1,297.6-14.232Zm30.318,2.421a12.817,12.817,0,0,0,1.674-2.176,3.951,3.951,0,0,0,.651-1.994v-4.807a25.618,25.618,0,0,0-4.836-1.405,26.262,26.262,0,0,0-4.929-.5,14.251,14.251,0,0,0-7.952,2.04,6.2,6.2,0,0,0-3.116,5.4,6.383,6.383,0,0,0,1.023,3.445,7.355,7.355,0,0,0,2.976,2.629,10.108,10.108,0,0,0,4.65,1,15.1,15.1,0,0,0,5.487-1.043A13.634,13.634,0,0,0,327.918-11.811ZM382.323.93a19.615,19.615,0,0,1-9.951-2.511,18.334,18.334,0,0,1-6.882-6.882V0H354.609V-67.89h12.462v28.272a19.388,19.388,0,0,1,6.835-6.882,19.045,19.045,0,0,1,9.9-2.511,18.87,18.87,0,0,1,8.649,1.978,20.591,20.591,0,0,1,6.742,5.472,25.733,25.733,0,0,1,4.371,8,29.765,29.765,0,0,1,1.534,9.657,26.846,26.846,0,0,1-1.72,9.657A25.559,25.559,0,0,1,398.6-6.29a21.473,21.473,0,0,1-7.208,5.334A21.612,21.612,0,0,1,382.323.93Zm-3.441-10.6a12.8,12.8,0,0,0,5.44-1.141,13.827,13.827,0,0,0,4.278-3.056,13.27,13.27,0,0,0,2.79-4.516,15.314,15.314,0,0,0,.977-5.428,16.294,16.294,0,0,0-1.628-7.253,13.844,13.844,0,0,0-4.464-5.337,11.216,11.216,0,0,0-6.65-2.007,11.4,11.4,0,0,0-5.161,1.232,14.818,14.818,0,0,0-4.371,3.33,16.584,16.584,0,0,0-3.022,4.744v11.4a9.04,9.04,0,0,0,1.814,3.285,12.809,12.809,0,0,0,2.929,2.509,15.79,15.79,0,0,0,3.488,1.642A11.475,11.475,0,0,0,378.882-9.672ZM413.85,0V-48.732l12.369.093L426.312,0Zm0-55.614V-67.89h12.369l.093,12.369Zm23.9-12.276h12.462v52.433q0,3.36,1.116,4.526A4.047,4.047,0,0,0,454.4-9.765a13.382,13.382,0,0,0,3.069-.372,14.705,14.705,0,0,0,2.79-.93l1.674,9.486a24.1,24.1,0,0,1-5.859,1.86,31.964,31.964,0,0,1-6.045.651q-5.859,0-9.067-3.124t-3.209-8.9ZM467.6,0V-48.732l12.369.093L480.066,0Zm0-55.614V-67.89h12.369l.093,12.369Zm53.2,53.2q-1.581.651-3.813,1.488A30.862,30.862,0,0,1,512.2.419a26.255,26.255,0,0,1-5.162.512,16.32,16.32,0,0,1-6.324-1.2,9.957,9.957,0,0,1-4.6-3.824,12.328,12.328,0,0,1-1.72-6.863V-38.688h-6.417v-9.579h6.417v-15.81H506.85v15.81h10.23v9.579H506.85v23.5a4.69,4.69,0,0,0,1.4,3.579,4.866,4.866,0,0,0,3.255,1.1,11.463,11.463,0,0,0,3.813-.651q1.86-.651,2.976-1.116Zm7.626,11.9q1.674.372,3.116.651a13.285,13.285,0,0,0,2.464.279,4.725,4.725,0,0,0,2.93-.878,8.8,8.8,0,0,0,2.279-3.123A41.421,41.421,0,0,0,541.539.137l-19.251-48.4h12.927l13.113,35.748L559.86-48.267h11.9L551.3,9.743a17.731,17.731,0,0,1-3.394,5.866,16.148,16.148,0,0,1-5.673,4.16,18.262,18.262,0,0,1-7.579,1.528,19.25,19.25,0,0,1-2.976-.233,22.371,22.371,0,0,1-3.255-.791ZM654.162,0V-43.338L637.236-11.067h-7.161L613.149-43.338V0H600.315V-66.03h13.764l19.53,37.572L653.325-66.03H667V0Zm21.762-14.232a13.34,13.34,0,0,1,2.651-8.224,16.957,16.957,0,0,1,7.393-5.467,28.69,28.69,0,0,1,10.881-1.93,42.788,42.788,0,0,1,6.231.465,21.354,21.354,0,0,1,5.487,1.488v-2.592a8.966,8.966,0,0,0-2.744-7.032q-2.743-2.466-8.138-2.466a21.06,21.06,0,0,0-7.626,1.4,38.559,38.559,0,0,0-7.626,4.092l-4-8.184a39.677,39.677,0,0,1,9.9-4.743,35.554,35.554,0,0,1,10.648-1.581q10.416,0,16.229,5.135t5.813,14.669V-13.9a4.273,4.273,0,0,0,.7,2.751,3.366,3.366,0,0,0,2.279,1.008V0q-1.674.279-3.023.465A17.132,17.132,0,0,1,718.7.651a8.3,8.3,0,0,1-5.626-1.674,7.1,7.1,0,0,1-2.372-4.092l-.279-2.511A21.3,21.3,0,0,1,702.522-1.3,22.5,22.5,0,0,1,692.85.93a18.807,18.807,0,0,1-8.7-1.976,15.174,15.174,0,0,1-6.045-5.422A14.192,14.192,0,0,1,675.924-14.232Zm30.318,2.421a12.817,12.817,0,0,0,1.674-2.176,3.951,3.951,0,0,0,.651-1.994v-4.807a25.617,25.617,0,0,0-4.836-1.405,26.262,26.262,0,0,0-4.929-.5,14.251,14.251,0,0,0-7.951,2.04,6.2,6.2,0,0,0-3.116,5.4,6.383,6.383,0,0,0,1.023,3.445,7.355,7.355,0,0,0,2.976,2.629,10.108,10.108,0,0,0,4.65,1,15.1,15.1,0,0,0,5.487-1.043A13.634,13.634,0,0,0,706.242-11.811ZM778.224,0H765.762V-26.947q0-5.775-2.046-8.432a6.758,6.758,0,0,0-5.673-2.658,11.314,11.314,0,0,0-5.069,1.271,15.766,15.766,0,0,0-4.6,3.5,13.62,13.62,0,0,0-2.976,5.131V0H732.933V-48.267h11.253v9a18.11,18.11,0,0,1,4.743-5.288,21.386,21.386,0,0,1,6.649-3.31,27.1,27.1,0,0,1,7.952-1.149,15.446,15.446,0,0,1,7.486,1.609,11.166,11.166,0,0,1,4.464,4.322,19.1,19.1,0,0,1,2.139,6.115,39.352,39.352,0,0,1,.6,6.9Zm7.812-14.232a13.34,13.34,0,0,1,2.651-8.224,16.957,16.957,0,0,1,7.393-5.467,28.69,28.69,0,0,1,10.881-1.93,42.788,42.788,0,0,1,6.231.465,21.354,21.354,0,0,1,5.487,1.488v-2.592a8.966,8.966,0,0,0-2.744-7.032q-2.743-2.466-8.138-2.466a21.06,21.06,0,0,0-7.626,1.4,38.559,38.559,0,0,0-7.626,4.092l-4-8.184a39.677,39.677,0,0,1,9.9-4.743A35.554,35.554,0,0,1,809.1-49.011q10.416,0,16.229,5.135t5.813,14.669V-13.9a4.273,4.273,0,0,0,.7,2.751,3.366,3.366,0,0,0,2.279,1.008V0q-1.674.279-3.023.465a17.132,17.132,0,0,1-2.279.186,8.3,8.3,0,0,1-5.626-1.674,7.1,7.1,0,0,1-2.372-4.092l-.279-2.511A21.3,21.3,0,0,1,812.634-1.3,22.5,22.5,0,0,1,802.962.93a18.807,18.807,0,0,1-8.7-1.976,15.174,15.174,0,0,1-6.045-5.422A14.192,14.192,0,0,1,786.036-14.232Zm30.318,2.421a12.817,12.817,0,0,0,1.674-2.176,3.951,3.951,0,0,0,.651-1.994v-4.807a25.617,25.617,0,0,0-4.836-1.405,26.262,26.262,0,0,0-4.929-.5,14.251,14.251,0,0,0-7.951,2.04,6.2,6.2,0,0,0-3.116,5.4,6.383,6.383,0,0,0,1.023,3.445,7.355,7.355,0,0,0,2.976,2.629,10.108,10.108,0,0,0,4.65,1,15.1,15.1,0,0,0,5.487-1.043A13.634,13.634,0,0,0,816.354-11.811ZM862.11.93a20.537,20.537,0,0,1-8.881-1.91,20.6,20.6,0,0,1-6.975-5.358,24.946,24.946,0,0,1-4.511-7.92,28.3,28.3,0,0,1-1.581-9.5,28.471,28.471,0,0,1,1.674-9.875,25.732,25.732,0,0,1,4.7-8.06,21.022,21.022,0,0,1,7.161-5.4,21.6,21.6,0,0,1,9.161-1.91A19.294,19.294,0,0,1,872.8-46.5a21.12,21.12,0,0,1,7.068,6.789v-8.556h10.881v46.1a21.4,21.4,0,0,1-3.487,12.333,22.251,22.251,0,0,1-9.626,7.852,34.043,34.043,0,0,1-13.95,2.725,30.605,30.605,0,0,1-13.392-2.65,27.109,27.109,0,0,1-9.393-7.487L847.7,4a19.3,19.3,0,0,0,7.021,5.394,21.162,21.162,0,0,0,8.975,1.953,19.035,19.035,0,0,0,7.3-1.356,11.827,11.827,0,0,0,5.3-4.2,12.713,12.713,0,0,0,2-7.462V-7.812a16.382,16.382,0,0,1-6.835,6.464A20.111,20.111,0,0,1,862.11.93Zm4.185-9.951a11.7,11.7,0,0,0,3.906-.653,13.878,13.878,0,0,0,3.441-1.773,13.326,13.326,0,0,0,2.79-2.658,13.173,13.173,0,0,0,1.86-3.126V-28.892a15.469,15.469,0,0,0-3.115-5.039,14.651,14.651,0,0,0-4.464-3.312,11.927,11.927,0,0,0-5.161-1.166,11.091,11.091,0,0,0-5.208,1.213,11.952,11.952,0,0,0-4,3.405,16.522,16.522,0,0,0-2.557,4.851,17.488,17.488,0,0,0-.883,5.552,15.215,15.215,0,0,0,1.023,5.6,14.363,14.363,0,0,0,2.836,4.572,13.218,13.218,0,0,0,4.278,3.078A12.555,12.555,0,0,0,866.295-9.021ZM924.885.93a27.312,27.312,0,0,1-10.6-1.977,23.975,23.975,0,0,1-8.091-5.426,24.5,24.5,0,0,1-5.161-7.909,24.786,24.786,0,0,1-1.813-9.426,25.853,25.853,0,0,1,3.115-12.6,23.757,23.757,0,0,1,8.928-9.153,26.386,26.386,0,0,1,13.717-3.449,25.8,25.8,0,0,1,13.671,3.454,23.479,23.479,0,0,1,8.7,9.119,25.534,25.534,0,0,1,3.023,12.206q0,1.1-.093,2.256t-.186,1.888H912.423a13.833,13.833,0,0,0,2.185,6.36,11.841,11.841,0,0,0,4.65,4.135,13.507,13.507,0,0,0,6.091,1.409A14.365,14.365,0,0,0,932.372-10a9.6,9.6,0,0,0,4.51-4.79l10.7,2.976a20.272,20.272,0,0,1-5.068,6.6A24.351,24.351,0,0,1,934.743-.7,28.6,28.6,0,0,1,924.885.93ZM912.144-27.993h25.482a14.19,14.19,0,0,0-2.092-6.317,12.067,12.067,0,0,0-4.511-4.181,12.948,12.948,0,0,0-6.231-1.5,12.49,12.49,0,0,0-6.091,1.5,12.172,12.172,0,0,0-4.464,4.181A14.19,14.19,0,0,0,912.144-27.993ZM1033.974,0h-12.462V-26.947q0-5.683-2-8.387a6.5,6.5,0,0,0-5.534-2.7,10.6,10.6,0,0,0-6.929,2.8,15.215,15.215,0,0,0-4.7,7.286V0H989.892V-26.947q0-5.775-2-8.432a6.538,6.538,0,0,0-5.534-2.658,10.75,10.75,0,0,0-6.929,2.725,14.784,14.784,0,0,0-4.7,7.174V0H958.272V-48.267h11.253v9a19.236,19.236,0,0,1,7.44-7.218,22.026,22.026,0,0,1,10.695-2.529q6.045,0,9.44,2.943a13.011,13.011,0,0,1,4.325,7.264A20.812,20.812,0,0,1,1009-46.39a20.585,20.585,0,0,1,10.37-2.621,14.9,14.9,0,0,1,7.394,1.609,11.667,11.667,0,0,1,4.417,4.322,18.44,18.44,0,0,1,2.186,6.115,39.357,39.357,0,0,1,.6,6.9Zm33.759.93a27.311,27.311,0,0,1-10.6-1.977,23.976,23.976,0,0,1-8.091-5.426,24.5,24.5,0,0,1-5.161-7.909,24.786,24.786,0,0,1-1.813-9.426,25.853,25.853,0,0,1,3.115-12.6,23.757,23.757,0,0,1,8.928-9.153,26.386,26.386,0,0,1,13.718-3.449,25.8,25.8,0,0,1,13.671,3.454,23.479,23.479,0,0,1,8.7,9.119,25.534,25.534,0,0,1,3.023,12.206q0,1.1-.093,2.256t-.186,1.888h-37.665a13.832,13.832,0,0,0,2.185,6.36,11.841,11.841,0,0,0,4.65,4.135,13.507,13.507,0,0,0,6.092,1.409A14.366,14.366,0,0,0,1075.22-10a9.6,9.6,0,0,0,4.51-4.79l10.695,2.976a20.272,20.272,0,0,1-5.068,6.6A24.352,24.352,0,0,1,1077.591-.7,28.594,28.594,0,0,1,1067.733.93Zm-12.741-28.923h25.482a14.19,14.19,0,0,0-2.093-6.317,12.068,12.068,0,0,0-4.51-4.181,12.949,12.949,0,0,0-6.231-1.5,12.489,12.489,0,0,0-6.091,1.5,12.172,12.172,0,0,0-4.464,4.181A14.187,14.187,0,0,0,1054.992-27.993ZM1146.411,0h-12.462V-26.947q0-5.775-2.046-8.432a6.758,6.758,0,0,0-5.673-2.658,11.313,11.313,0,0,0-5.068,1.271,15.768,15.768,0,0,0-4.6,3.5,13.62,13.62,0,0,0-2.976,5.131V0H1101.12V-48.267h11.253v9a18.109,18.109,0,0,1,4.743-5.288,21.387,21.387,0,0,1,6.65-3.31,27.1,27.1,0,0,1,7.952-1.149A15.447,15.447,0,0,1,1139.2-47.4a11.166,11.166,0,0,1,4.464,4.322,19.1,19.1,0,0,1,2.139,6.115,39.357,39.357,0,0,1,.6,6.9Zm40.083-2.418q-1.581.651-3.813,1.488a30.867,30.867,0,0,1-4.79,1.349,26.255,26.255,0,0,1-5.161.512,16.32,16.32,0,0,1-6.324-1.2,9.957,9.957,0,0,1-4.6-3.824,12.328,12.328,0,0,1-1.72-6.863V-38.688h-6.417v-9.579h6.417v-15.81h12.462v15.81h10.23v9.579h-10.23v23.5a4.69,4.69,0,0,0,1.395,3.579,4.866,4.866,0,0,0,3.255,1.1,11.464,11.464,0,0,0,3.813-.651q1.86-.651,2.976-1.116Z" transform="translate(241 1924)"/>
  </g>
</svg>
