<svg xmlns="http://www.w3.org/2000/svg" xmlns:xlink="http://www.w3.org/1999/xlink" width="372.173" height="377.87" viewBox="0 0 372.173 377.87">
  <defs>
    <clipPath id="clip-path">
      <rect id="Rectangle_4" data-name="Rectangle 4" width="367" height="304" transform="translate(4202 -691)" fill="#fff" stroke="#707070" stroke-width="1"/>
    </clipPath>
  </defs>
  <g id="AIsaac-TM-logo2" transform="translate(-3588.827 -156)">
    <g id="Mask_Group_1" data-name="Mask Group 1" transform="translate(-608 847)" clip-path="url(#clip-path)">
      <path id="Path_8" data-name="Path 8" d="M124.084-283.29h23.7L266.275,0H236.551L200.916-88.578H70.555L34.913,0H4.788Zm68,172.767L135.732-250.572,79.386-110.523ZM307.245,0V-283.29h28.117V0ZM467.913,3.99a133.684,133.684,0,0,1-47.8-8.379,100.342,100.342,0,0,1-38.159-25.536L393.2-49.077q17.673,16.359,35.548,23.74a98.457,98.457,0,0,0,37.958,7.382q24.5,0,39.765-9.691T521.737-55.53q0-12.3-7.431-18.847T493.017-85.09q-13.858-4.168-33.138-8.925a258.145,258.145,0,0,1-36.351-12.5q-14.661-6.546-22.092-16.664t-7.431-26.384q0-20.237,10.243-33.528t28.117-20.237q17.874-6.945,39.966-6.945,24.1,0,42.577,7.581t30.125,21.147l-13.255,18.354a69.649,69.649,0,0,0-26.711-18.952,91.726,91.726,0,0,0-34.343-6.185,87.744,87.744,0,0,0-24.5,3.37,42.039,42.039,0,0,0-19.079,11.1q-7.431,7.734-7.431,21.212,0,11.1,5.623,17.251t16.87,10.312q11.247,4.165,27.715,8.921,23.7,6.347,41.372,12.89t27.314,16.852q9.64,10.309,9.64,28.943,0,28.946-22.092,45.205T467.913,3.99ZM576.364-59.451q0-19.426,11.247-33.5t31.129-21.808q19.883-7.731,45.991-7.731a220.657,220.657,0,0,1,31.732,2.394,143.116,143.116,0,0,1,29.322,7.182v-17.506q0-26.172-15.665-41.639t-43.38-15.467a92.557,92.557,0,0,0-33.138,6.185,167.015,167.015,0,0,0-33.941,18.154l-10.443-19.152q20.485-13.965,40.167-20.948a119.312,119.312,0,0,1,40.167-6.982q38.56,0,61.054,21.808T753.1-128.2v95.548q0,5.555,2.41,8.13t7.632,2.974V0q-4.418.4-7.632.8a14.258,14.258,0,0,1-4.82,0Q740.646.4,735.425-5.586A21.119,21.119,0,0,1,729.8-18.354l-.4-15.162Q715.341-15.561,692.848-5.786a113.879,113.879,0,0,1-45.79,9.776,77.105,77.105,0,0,1-36.351-8.526,64.25,64.25,0,0,1-25.305-23A59.064,59.064,0,0,1,576.364-59.451Zm140.183,15.8a54.372,54.372,0,0,0,6.828-10.673,21.9,21.9,0,0,0,2.41-9.1v-30.05a169.678,169.678,0,0,0-28.318-7.905,158.788,158.788,0,0,0-29.523-2.768q-29.322,0-47.4,11.465T602.472-61.44A41.309,41.309,0,0,0,608.5-39.888,46.4,46.4,0,0,0,626.17-23.282q11.648,6.524,27.314,6.524a90.222,90.222,0,0,0,36.753-7.512Q707.308-31.783,716.546-43.647Zm78.727-15.8q0-19.426,11.247-33.5t31.129-21.808q19.883-7.731,45.991-7.731a220.656,220.656,0,0,1,31.732,2.394,143.117,143.117,0,0,1,29.322,7.182v-17.506q0-26.172-15.665-41.639t-43.38-15.467a92.556,92.556,0,0,0-33.138,6.185,167.015,167.015,0,0,0-33.941,18.154l-10.443-19.152q20.485-13.965,40.167-20.948a119.311,119.311,0,0,1,40.167-6.982q38.56,0,61.054,21.808T972.008-128.2v95.548q0,5.555,2.41,8.13t7.632,2.974V0q-4.418.4-7.632.8a14.259,14.259,0,0,1-4.82,0Q959.556.4,954.334-5.586a21.118,21.118,0,0,1-5.623-12.768l-.4-15.162Q934.251-15.561,911.757-5.786a113.879,113.879,0,0,1-45.79,9.776,77.105,77.105,0,0,1-36.351-8.526,64.25,64.25,0,0,1-25.305-23A59.064,59.064,0,0,1,795.273-59.451Zm140.183,15.8a54.375,54.375,0,0,0,6.828-10.673,21.9,21.9,0,0,0,2.41-9.1v-30.05a169.682,169.682,0,0,0-28.318-7.905,158.788,158.788,0,0,0-29.523-2.768q-29.322,0-47.4,11.465T821.382-61.44a41.309,41.309,0,0,0,6.025,21.552A46.394,46.394,0,0,0,845.08-23.282q11.648,6.524,27.314,6.524a90.222,90.222,0,0,0,36.753-7.512Q926.217-31.783,935.456-43.647ZM1121.83,3.99a101.658,101.658,0,0,1-41.974-8.532,103.681,103.681,0,0,1-33.339-23.61,109.114,109.114,0,0,1-22.091-34.52,109.372,109.372,0,0,1-7.833-41.262q0-29.364,13.255-53.569A100.616,100.616,0,0,1,1066.8-195.99q23.7-14.283,54.627-14.283,29.322,0,51.816,13.367a82.806,82.806,0,0,1,33.338,36.109l-26.51,8.379a63.417,63.417,0,0,0-24.7-24.937,70.119,70.119,0,0,0-35.146-8.977,71.056,71.056,0,0,0-38.158,10.7,77.927,77.927,0,0,0-27.515,29.314q-10.242,18.619-10.242,42.391,0,23.373,10.443,42.388a83.524,83.524,0,0,0,27.715,30.305,68.285,68.285,0,0,0,38.159,11.29,73.723,73.723,0,0,0,26.309-4.788,72.626,72.626,0,0,0,22.092-12.968q9.439-8.179,12.652-17.756l26.912,7.98a68.425,68.425,0,0,1-18.678,26.534,95.191,95.191,0,0,1-30.527,18.354A105.642,105.642,0,0,1,1121.83,3.99Z" transform="translate(4197.212 -403.71)"/>
    </g>
    <path id="Path_9" data-name="Path 9" d="M22.1.87A32.571,32.571,0,0,1,10.962-1.044,25.036,25.036,0,0,1,1.827-6.7L6-14.268A31.23,31.23,0,0,0,14.051-9.4,20.662,20.662,0,0,0,21.663-7.83,10.882,10.882,0,0,0,27.1-9a3.814,3.814,0,0,0,2.044-3.524,3.056,3.056,0,0,0-1.131-2.533,10.384,10.384,0,0,0-3.263-1.589q-2.132-.687-5.177-1.545a80.571,80.571,0,0,1-8.439-3.178,12.407,12.407,0,0,1-5.089-3.908,10.128,10.128,0,0,1-1.7-6.054,12.857,12.857,0,0,1,2.306-7.687,15.138,15.138,0,0,1,6.438-5.024,24.1,24.1,0,0,1,9.7-1.8,27.714,27.714,0,0,1,9.222,1.522,21.931,21.931,0,0,1,7.917,4.916l-4.7,7.395a28.208,28.208,0,0,0-6.612-3.958,16.868,16.868,0,0,0-6.351-1.262,13.321,13.321,0,0,0-3.437.428,5.737,5.737,0,0,0-2.61,1.413,3.73,3.73,0,0,0-1,2.783,3.382,3.382,0,0,0,.913,2.526A7.771,7.771,0,0,0,18.923-28.5q1.87.685,4.568,1.542a75.69,75.69,0,0,1,9.265,3.169,14.608,14.608,0,0,1,5.7,3.982,9.966,9.966,0,0,1,1.914,6.465A12.384,12.384,0,0,1,35.409-2.9Q30.45.87,22.1.87ZM45.153-13.314a12.479,12.479,0,0,1,2.479-7.693,15.863,15.863,0,0,1,6.917-5.115,26.839,26.839,0,0,1,10.179-1.805,40.027,40.027,0,0,1,5.829.435A19.976,19.976,0,0,1,75.69-26.1v-2.425A8.387,8.387,0,0,0,73.124-35.1q-2.567-2.307-7.613-2.307a19.7,19.7,0,0,0-7.134,1.3,36.074,36.074,0,0,0-7.134,3.828L47.5-39.933a37.117,37.117,0,0,1,9.266-4.437,33.26,33.26,0,0,1,9.962-1.479q9.744,0,15.182,4.8t5.438,13.722V-13A4,4,0,0,0,88-10.426a3.149,3.149,0,0,0,2.132.943V0Q88.566.261,87.3.435a16.027,16.027,0,0,1-2.132.174A7.763,7.763,0,0,1,79.91-.957a6.647,6.647,0,0,1-2.218-3.828L77.43-7.134a19.93,19.93,0,0,1-7.4,5.916A21.045,21.045,0,0,1,60.987.87,17.594,17.594,0,0,1,52.853-.978,14.2,14.2,0,0,1,47.2-6.05,13.276,13.276,0,0,1,45.153-13.314Zm28.362,2.265a11.989,11.989,0,0,0,1.566-2.036,3.7,3.7,0,0,0,.609-1.866v-4.5a23.965,23.965,0,0,0-4.524-1.315,24.567,24.567,0,0,0-4.611-.466,13.331,13.331,0,0,0-7.438,1.909A5.8,5.8,0,0,0,56.2-14.272a5.972,5.972,0,0,0,.957,3.223,6.88,6.88,0,0,0,2.784,2.46,9.456,9.456,0,0,0,4.35.933,14.128,14.128,0,0,0,5.133-.975A12.755,12.755,0,0,0,73.515-11.049Zm21.576-2.265a12.479,12.479,0,0,1,2.479-7.693,15.863,15.863,0,0,1,6.916-5.115,26.839,26.839,0,0,1,10.179-1.805,40.027,40.027,0,0,1,5.829.435,19.976,19.976,0,0,1,5.133,1.392v-2.425a8.387,8.387,0,0,0-2.567-6.578q-2.567-2.307-7.612-2.307a19.7,19.7,0,0,0-7.134,1.3,36.073,36.073,0,0,0-7.134,3.828L97.44-39.933a37.117,37.117,0,0,1,9.265-4.437,33.26,33.26,0,0,1,9.962-1.479q9.744,0,15.182,4.8t5.438,13.722V-13a4,4,0,0,0,.652,2.573,3.149,3.149,0,0,0,2.132.943V0q-1.566.261-2.827.435a16.027,16.027,0,0,1-2.132.174,7.763,7.763,0,0,1-5.263-1.566,6.646,6.646,0,0,1-2.219-3.828l-.261-2.349a19.93,19.93,0,0,1-7.4,5.916A21.045,21.045,0,0,1,110.925.87,17.594,17.594,0,0,1,102.79-.978,14.2,14.2,0,0,1,97.135-6.05,13.276,13.276,0,0,1,95.091-13.314Zm28.362,2.265a11.989,11.989,0,0,0,1.566-2.036,3.7,3.7,0,0,0,.609-1.866v-4.5a23.965,23.965,0,0,0-4.524-1.315,24.567,24.567,0,0,0-4.611-.466,13.331,13.331,0,0,0-7.438,1.909,5.8,5.8,0,0,0-2.915,5.047,5.972,5.972,0,0,0,.957,3.223,6.88,6.88,0,0,0,2.784,2.46,9.456,9.456,0,0,0,4.35.933,14.128,14.128,0,0,0,5.133-.975A12.755,12.755,0,0,0,123.453-11.049ZM169.389.87A25.779,25.779,0,0,1,159.384-.98a21.837,21.837,0,0,1-7.569-5.162,23.788,23.788,0,0,1-4.828-7.528,23.519,23.519,0,0,1-1.7-8.862A23.76,23.76,0,0,1,148.2-34.19a22.1,22.1,0,0,1,8.309-8.475A24.709,24.709,0,0,1,169.3-45.849,24.033,24.033,0,0,1,182-42.63a20.48,20.48,0,0,1,7.917,8.439l-11.4,3.48a10.238,10.238,0,0,0-3.915-3.872,10.949,10.949,0,0,0-5.394-1.348,11.428,11.428,0,0,0-6.046,1.664,11.562,11.562,0,0,0-4.307,4.694,15.129,15.129,0,0,0-1.566,7.042,14.6,14.6,0,0,0,1.609,6.955,12.635,12.635,0,0,0,4.307,4.779,10.8,10.8,0,0,0,6,1.75,11.258,11.258,0,0,0,3.959-.7,11.573,11.573,0,0,0,3.35-1.914,7.605,7.605,0,0,0,2.175-2.784l11.4,3.48a18.691,18.691,0,0,1-4.567,6.09,22.034,22.034,0,0,1-7.047,4.22A25.658,25.658,0,0,1,169.389.87Zm53.244-62.64,16.7,47.5,16.53-47.5h12.615L245.079,0H233.508l-23.49-61.77ZM325.467,0V-40.542L309.633-10.353h-6.7L287.1-40.542V0H275.094V-61.77H287.97l18.27,35.148L324.684-61.77h12.789V0Z" transform="translate(3587 533)"/>
  </g>
</svg>
